/* XPM */
static char *_104b96c669346aeaf9ec392d5d82be6726KMwgy7Ehj66Mh[] = {
/* columns rows colors chars-per-pixel */
"32 32 117 2 ",
"   c None",
".  c #D70435",
"X  c #D70831",
"o  c #D7043E",
"O  c #D70B3D",
"+  c #D80E3C",
"@  c #D81333",
"#  c #D8143B",
"$  c #D91B39",
"%  c #DD3D2F",
"&  c #DA2337",
"*  c #DB2B35",
"=  c #D92038",
"-  c #DC3333",
";  c #DD3C31",
":  c #E5751E",
">  c #E57D1F",
",  c #DD442F",
"<  c #DE4B2D",
"1  c #DF542B",
"2  c #DF5929",
"3  c #DC5A32",
"4  c #DA5A39",
"5  c #E04F2C",
"6  c #E15725",
"7  c #E0532A",
"8  c #E05D29",
"9  c #E16426",
"0  c #E26B25",
"q  c #E06028",
"w  c #E37523",
"e  c #E57B22",
"r  c #E06737",
"t  c #E1613D",
"y  c #D50042",
"u  c #CF0051",
"i  c #DA3C6F",
"p  c #D82A70",
"a  c #DC415B",
"s  c #DD5454",
"d  c #E05B40",
"f  c #E06444",
"g  c #E99509",
"h  c #E78514",
"j  c #E5851F",
"k  c #E58C1D",
"l  c #EA9F16",
"z  c #E5941B",
"x  c #E8931C",
"c  c #E69919",
"v  c #E69A19",
"b  c #E79A19",
"n  c #E79D18",
"m  c #E69C19",
"M  c #E79F18",
"N  c #E79E18",
"B  c #E99B1A",
"V  c #E7A117",
"C  c #E7A317",
"Z  c #E7A417",
"A  c #E7A716",
"S  c #E7A217",
"D  c #E8A317",
"F  c #E8A516",
"G  c #E8A417",
"H  c #E8A616",
"J  c #E8A516",
"K  c #E8A913",
"L  c #E8AF13",
"P  c #E8A915",
"I  c #E8AA15",
"U  c #E8AB15",
"Y  c #E9AC15",
"T  c #E9AE14",
"R  c #E8AF14",
"E  c #E8AB15",
"W  c #E7A018",
"Q  c #E7A318",
"!  c #E7A018",
"~  c #E8A119",
"^  c #E5B617",
"/  c #EAB110",
"(  c #E8B013",
")  c #E9B313",
"_  c #E9B512",
"`  c #E9B413",
"'  c #E9B513",
"]  c #E9B612",
"[  c #E9B712",
"{  c #EAB712",
"}  c #E9B114",
"|  c #E9B512",
" . c #EABB11",
".. c #E9B812",
"X. c #E9B912",
"o. c #EAB812",
"O. c #EAB912",
"+. c #EABD10",
"@. c #EABE10",
"#. c #EABF10",
"$. c #EABB11",
"%. c #E48020",
"&. c #E68120",
"*. c #E68021",
"=. c #E68220",
"-. c #E68320",
";. c #E68420",
":. c #E18725",
">. c #ECC402",
",. c #EBC00F",
"<. c #EBC20F",
"1. c #EBC90D",
"2. c #ECCB0D",
"3. c #ECCF0C",
"4. c #ECCC0C",
"5. c #ECD00B",
"6. c #EDD30B",
/* pixels */
"                                                                ",
"                  e                       9 (                   ",
"                5                           # 9                 ",
"            ] ,                                 < z             ",
"            w y             a a             ,     % L           ",
"          #.*             r z ' ~ s           ,     <  .        ",
"          m +         p f h 3 4 : >.M           7   u 0 #.      ",
"          e o       d k h e w 9 8 k K A C       y :.  o c       ",
"    j     w .     t g > e e e e *.w e ;.x x l     6 ( y ,  .    ",
"    e     j X   i h       0 e e e e e w w 0       # D   o z I   ",
"    w y   Y @               w e e e e w e w       o k e y w ]   ",
"    ;.y   6.;                 e e e e e *.0       o w z y 2  .  ",
"    Y #     I o               &.8 w e e *.w       o q Q y < '   ",
"    1., y     z o             9 * *.e e e e       y q Q y , ) Q ",
"e     k y y     I 9         e + - x ;.e e e       o z e y < ] M ",
"z +   5.q y O             7 + o e x 5 0 e j     y ; U & y 1 ] M ",
"U $   ,.] 7 y + O y # * & y O e B * $ *.e     o # e , o o 8 ] n ",
"  1 y   <.] 9 O o $ $ + # $ 8 0 $ # e B x   o $ & * O $ o 0 ] n ",
"  :.y      .] k - o o # $ * & y y 5 9 5 * + $ $ $ # $ $ + e ]   ",
"   ., y     ] ) ( j , # o y O $ & # + y # $ $ $ # $ $ # # k Y   ",
"  Y n # y   z #.I ] ] z 0 , & + y O # $ $ $ $ # O & $ + * F C   ",
"     .e o y + 9 D ]  .<.5.1.' M e 6 - $ $ $ o o w , O y <  .M   ",
"    M  .e o y o & < 8 9 0 9 9 9 9 5 * $ + y * x +.* + o w  .    ",
"      M $.k & y o o o o O o o o y + y y $ 8 Y 4.j O + $ M F     ",
"      M M ] I 2 # y o + # # + O y o & 2 M  .A #.< o y 2 #.      ",
"        M M J  .M 9 , * & $ * - 1 w Q  .I M ( e O O $ C         ",
"          k J M I ] ( F c z D I ] ] F M M Y c + O O 0           ",
"              M M C ~ C F I F D M M M Q Q   2 * o *             ",
"                  M Y Y M M D F M M M     k ; + ,               ",
"                                      C k 8 <                   ",
"                          C z z M Q Q N k                       ",
"                          C D F M M                             "
};
