/* XPM */
static char *fb77b64dae174044a89477e125a9a40frSbpWkGNDKdVobT0[] = {
/* columns rows colors chars-per-pixel */
"16 16 132 2 ",
"   c None",
".  c #D6023F",
"X  c #D6033F",
"o  c #D70A3D",
"O  c #D70B3D",
"+  c #D7083E",
"@  c #D70C3D",
"#  c #D70D3D",
"$  c #D70E3C",
"%  c #D80C3D",
"&  c #D8123B",
"*  c #D8143A",
"=  c #D9153B",
"-  c #D8173A",
";  c #D9173A",
":  c #D8103C",
">  c #D71F3D",
",  c #D91B39",
"<  c #D91D38",
"1  c #D91E38",
"2  c #DD3B26",
"3  c #DA2337",
"4  c #DA2636",
"5  c #DA2936",
"6  c #DB2F34",
"7  c #DB2E36",
"8  c #DB3133",
"9  c #DC3632",
"0  c #DB3134",
"q  c #DC3831",
"w  c #DD3B31",
"e  c #DC3C30",
"r  c #DD3D30",
"t  c #DD3C31",
"y  c #DD3E30",
"u  c #DC3F30",
"i  c #DB3D34",
"p  c #DC3A3A",
"a  c #E1601E",
"s  c #DD422F",
"d  c #DE462D",
"f  c #DE472D",
"g  c #DD462E",
"h  c #DE482D",
"j  c #DF4B2D",
"k  c #DE4C2D",
"l  c #DE4D2D",
"z  c #DE4E2C",
"x  c #DE4F2C",
"c  c #DF522B",
"v  c #DF532B",
"b  c #DF502C",
"n  c #DF512C",
"m  c #DE4030",
"M  c #E05929",
"N  c #E05D29",
"B  c #E25F28",
"V  c #E25E29",
"C  c #DF6228",
"Z  c #DE6A3C",
"A  c #E16325",
"S  c #E06327",
"D  c #E16725",
"F  c #E16427",
"G  c #E16B22",
"H  c #E16825",
"J  c #E16826",
"K  c #E16926",
"L  c #E16C25",
"P  c #E26C25",
"I  c #E36E25",
"U  c #E47423",
"Y  c #E67523",
"T  c #E47324",
"R  c #E37B22",
"E  c #E57921",
"W  c #E47A22",
"Q  c #E57A22",
"!  c #E57C21",
"~  c #E67F21",
"^  c #E57C22",
"/  c #E57D22",
"(  c #D60041",
")  c #D60240",
"_  c #D50042",
"`  c #D50043",
"'  c #D40045",
"]  c #DB4963",
"[  c #DD4A64",
"{  c #EA9B06",
"}  c #E48014",
"|  c #E68F15",
" . c #E6801A",
".. c #E5801F",
"X. c #E4841F",
"o. c #E5871E",
"O. c #E58B19",
"+. c #E58A1D",
"@. c #E58F1D",
"#. c #E88C1D",
"$. c #E6931B",
"%. c #E6951A",
"&. c #E6961B",
"*. c #E69A19",
"=. c #E6981A",
"-. c #E6991A",
";. c #E69A1A",
":. c #E79F18",
">. c #E9991A",
",. c #E99C19",
"<. c #E7A116",
"1. c #E7A017",
"2. c #E7A317",
"3. c #E8A716",
"4. c #E8A815",
"5. c #E8AB14",
"6. c #E8AB15",
"7. c #E8AC15",
"8. c #E9AF14",
"9. c #E8AE15",
"0. c #E7A018",
"q. c #E9B512",
"w. c #E9B413",
"e. c #E9B114",
"r. c #E9B811",
"t. c #EAB911",
"y. c #EABA11",
"u. c #EABB11",
"i. c #EABC11",
"p. c #EBBF10",
"a. c #ECCF0B",
"s. c #EBC90E",
/* pixels */
"                                ",
"      -.              y C       ",
"      2       Z ]       g R     ",
"    A     [ ~ } | 8.    3 i <.  ",
"    a     {  .Y Q ..,.    h v   ",
"  y G p       Q ~ W T     l l 7.",
"  s 7 O.      ~ V #.W     M l 0.",
"  o.1 5 D     y V Y >.  5 n 0 3.",
"v v p.: ) 4 * w j I ~ & 7 * 9 8.",
"-.@ o.a.C , @ ) @ m 1 O O ) c w.",
"  K ' K s.y.@.A y @ ) , w ) K   ",
"  i.K ' O y v l 4 ) 3 0.D ) %.  ",
"    y.%.m & O @ 0 I y.e.O g     ",
"      8.i.4.&.:.e.y.y.w )       ",
"          @.8.-.-.4.X.g         ",
"                  <.            "
};
