/* XPM */
static char *_4b8fe19c65746fbca2c2d1dfccc3c30MrjQOdyoFPTp9zj8[] = {
/* columns rows colors chars-per-pixel */
"64 64 121 2 ",
"   c None",
".  c #D7043F",
"X  c #D70A3D",
"o  c #D80E3C",
"O  c #DC1633",
"+  c #DC1A32",
"@  c #D8143B",
"#  c #D91B39",
"$  c #DE222E",
"%  c #DE2D2D",
"&  c #DD3E2F",
"*  c #DA2437",
"=  c #DB2B35",
"-  c #DA2038",
";  c #DC3433",
":  c #DD3C31",
">  c #E1691B",
",  c #E67E1E",
"<  c #DD442F",
"1  c #DE4B2D",
"2  c #DF542B",
"3  c #DF592A",
"4  c #DD4132",
"5  c #D95D3B",
"6  c #E04E2C",
"7  c #E05F27",
"8  c #E0532B",
"9  c #E05C29",
"0  c #E05E3E",
"q  c #DA6637",
"w  c #D9713C",
"e  c #E16427",
"r  c #E26C25",
"t  c #E06028",
"y  c #E37423",
"u  c #E57B22",
"i  c #E47628",
"p  c #E16438",
"a  c #E27A34",
"s  c #D60041",
"d  c #D61740",
"f  c #D61A41",
"g  c #DA3A61",
"h  c #D9326B",
"j  c #D72577",
"k  c #D82D70",
"l  c #D6227B",
"z  c #DE504C",
"x  c #DB455F",
"c  c #DC4C5A",
"v  c #E05C40",
"b  c #DF6150",
"n  c #E06D46",
"m  c #E27240",
"M  c #E78408",
"N  c #E88E0D",
"B  c #E58411",
"V  c #E78A12",
"C  c #E88A12",
"Z  c #E5841F",
"A  c #E68C1D",
"S  c #E88E1D",
"D  c #EA9311",
"F  c #E6931B",
"G  c #E8921C",
"H  c #E79E18",
"J  c #E99C1A",
"K  c #EBBD05",
"L  c #EAB20A",
"P  c #EBBB0D",
"I  c #E7A317",
"U  c #E8A516",
"Y  c #E8AC15",
"T  c #E7A018",
"R  c #E9B013",
"E  c #E9B113",
"W  c #E9B212",
"Q  c #E9B213",
"!  c #E9B313",
"~  c #E9B512",
"^  c #E9B413",
"/  c #E9B612",
"(  c #E9B712",
")  c #E9B014",
"_  c #E9B413",
"`  c #EAB911",
"'  c #EABB10",
"]  c #EABA11",
"[  c #EABB11",
"{  c #E9B812",
"}  c #EAB812",
"|  c #EABC11",
" . c #EABF10",
".. c #EABA11",
"X. c #D99736",
"o. c #DB9339",
"O. c #E58020",
"+. c #E58120",
"@. c #E68020",
"#. c #E58220",
"$. c #E58120",
"%. c #E48923",
"&. c #E4872D",
"*. c #DDA035",
"=. c #EEC408",
"-. c #EBC30F",
";. c #EBC50E",
":. c #EBC40F",
">. c #ECC90C",
",. c #ECCD0D",
"<. c #ECCB0D",
"1. c #EDD200",
"2. c #EDD60A",
"3. c #EDD20B",
"4. c #EDDB09",
"5. c #EBC110",
"6. c #DEE236",
"7. c #D41687",
"8. c #D41088",
"9. c #D41588",
"0. c #D30891",
/* pixels */
"                                                                                                                                ",
"                                                                              y                                                 ",
"                                        u                                       = 2 A                                           ",
"                                    u ;                                             o 4 Z ;.                                    ",
"                                U < s                                                   . < H F                                 ",
"                              J # s                                                         @ A [                               ",
"                          R I # s                                                             s 3 >.%.                          ",
"                          / ; s                                                                 s : P )                         ",
"                         .r s                             8.                            = F       s * U [                       ",
"                      U T # o                         7.b m n c k                         @ A       s # U )                     ",
"                      [ t s                         k T B > N K U a x                       . Z       . = Y )                   ",
"                    U U = X                         T M 5 6.*.r L K L &.                      . H       s : ( U                 ",
"                    R #.X #                   9.8.c 1.6 f p o.w y R I L U A                     # Y     $ s 7  .H               ",
"            U       [ t s #               9.h z n u Z y 8 % + 4 d e / J U Y H                   s 1 P     O s A / H             ",
"            e     ) / 1 s               j v , N C , y u #.S S y 6 4 G Y I H H H H                 s D X.  O . = Y U             ",
"          Y ;     ) ) : X             k u N , u u u u u u u u u S u y S J I U I I T T T           X = =.    X s e  .H           ",
"          J @     Y Y : X           j u V u u u u u u u u u u u u u u r u @.G G J T T T J Y         s u 2.  . o # H U H         ",
"          +..     Y ) : .           p D u u u u u u u u u u u u u u u u u y y u u $.$.$.$.          . 4  .    @ s e [ H         ",
"        / r s     Y / 1 .         g V u r           u u u u u u u u u u u u u y u u u e             @ # F -.  . X = U U T       ",
"        / 7 .     ) [ e s #       p C                   u u u u u u u u u u u u u u u                 . y ,.  X @ X Z / T       ",
"        / 9 s      .) u X #       i                       u u u u u u u u u u u u u u                 s 2 -.    @ . t { H H     ",
"        / 3 . .     U I * X                               u u u u u u u y u u u u u u                 X : R U   X . < E T H     ",
"        / t . @     U [ 2 s @                               u u u u i u u u u u u u u                 o * H  .  . X ; U U H     ",
"        R y X #       Y F o #                               u u u u u u u u u u u u S 9               @ # J P t . o # J U H T   ",
"        E A @ @ o     Y [ < s -                             u $.r 8 @.u u u u u u u $.y               @ # A -.y X @ @ A R H H   ",
"        Y U = X -       R J o X                             u S 6 ; @.u u u u u u u u u               @ @ A -.u X @ o u E H H   ",
"  r     ) { 2 . # #       [ Z . s                         u $.$.o : S u u u u u u u u u               @ @ Z ;.y X # X u R T T   ",
"  y     { E A o @ # @        .Z # s                       u G 4 s 8 S u i u u u u u u u             # @ @ F ;.3 . @ X u / H H   ",
"  u s     T [ < s # # @       ,.U 6 # .                 u G 8 X o e @.u u u u u u u u u             # X ; Y { & X # X u R T H   ",
"/ Z s     U ) F @ @ # # @         3.U y 1 ;             S 6 o . * @., u , @.i u u u u u           # # s 7 <.F @ @ @ X Z ) T H H ",
"/ A @     [ J [ r s # # # # s                         r ; X @ . 8 S u , @.8 u u u u u u           # @ @ F <.< . # @ @ Z Y H T J ",
"/ H = s     H T / 1 s # # # # @ s                 t ; @ X # X = S u @.S : - @.u u u u u         # # s 1 4.u . @ - @ @ A R H H H ",
") Y : s     Y J U / : s # # # # # # @ X . # ; * # X X # - X @ y @.@.S 4 s ; S u u y u         # # o @  .F X o # # @ # J U H H H ",
"  / 9 .       H H Y / 4 s @ # # # # # # # @ X @ @ # # # X o y F G i ; X s 9 S u u u u       # # # o A A X o # # # @ = U U I H   ",
"  R #.X @     [ H J U { 3 . X # # # # # # # # # # # # X ; #.H y 6 @ X . ; @.u i u #.G     # # # @ ; 9 . o # # # # X ; U I H H   ",
"  U T * @ .     U H H U  .u @ s @ # # # # # # # # # # < i e : @ X @ X * @.S @.@.S A   . # # # # # # X @ # # # # # . < Y I T H   ",
"  T  .2 . #       H H H T [ I 1 . . @ # # # # # # # - ; # X X @ # @ < S S u u r 3 ; X # # # # # # # # # # # # # @ . 2 / H H H   ",
"    Y A X @ @      .H H H H Y [ A : . . @ # # # # # # @ @ # # # # # 4 : ; * * @ X X # # # # # # # # # # # # # # # . e / H H T   ",
"    T [ < s - X     [ H H H H H / R u < X . o # # # # # # # # # # # o o o o @ @ # # # # # # # # # # # # # # # # # X , / T H H   ",
"    H R G o @ # X     P T H H H H I / / A 8 * . s o # # # # # # # # # # # # # # # # # # # # # # # # # # # # # # @ # F U H H     ",
"    H H  .t s # - X      .U H H H H H H R [ I y < * X s X o @ # # # # # # # # # # # # # # # # # # # @ # # # # # X ; U U H H     ",
"      H I R ; . - # o .   ) [ H H H I H H H U / { T +.3 : # X s . o @ # # # # # # # # # # # # # @ X = # # # # # . 1 / H T H     ",
"      H H R H @ . - - @ s   #.[ R I H H H I I H H U / { Y F u t 6 * @ o X @ # # # # # # # # - X s y y . # # # # s r { H T       ",
"        H J [ G X X - # # . . 1 A / [ R Y U U I U U T U U { ;.>.-.} U %.e : # # # # # # # @ . o , 3.8 s # # # @ @ G Y I H       ",
"        H H H [ A X . # # # @ . X 4 e Z A J I U U U U T T F A Z u e e 8 1 = # # # # # # X s & H 5.U ; X # # # . ; Y I T H       ",
"          H H H [ F # s # # # # @ . . o @ * = ; ; : ; ; = - @ o X . s s o # # # # # # s # r [ R U F # @ # # # . e [ H H         ",
"          H H H H / U ; . @ - # # # # @ @ @ X X X X X X X @ @ @ O # # # # # # # # s s 6 J [ I J / u X @ # # @ @ A Y H H         ",
"            H H T H Y / 3 . . # # # # # # # # # # # # # # # # # # # # # # # # s s ; Z ] Y J J J { 1 . - # # . & R I T           ",
"              H T H H U P Z ; s . # # # # # # # # # # # # # # # # # # @ o . . ; y E / I H H H Y I @ @ # # # . y [ H             ",
"              H T H H H H ( E y ; . . X # # # # # # # # # # # # # @ . . @ < Z Y [ I H T H H H  .3 . - @ # X = U U H             ",
"                I I J I H H I [ Y u 1 - X . . X o o o o X X . . X @ : r G / / I J H H H H H  .A X @ # # # s r  .T               ",
"                  H U H H H H H I / / J u 3 < ; = * - = = : < 3 u F E | U I H H H H H T T Y H # X - # # . = [ I                 ",
"                    J U H H H H H H H U R [ / U U J F H U U ) / / U I T H I H H H H I H U U = s # # # @ . F [                   ",
"                      U H H H T T H I H T H T I U U U U U I T H T H H I H H H H H H H H   u s @ # # @ . e R                     ",
"                          H H T H H H I H H H H I H H I T H H H H T H H H H H H H H H   / @ - 4 o - . & F                       ",
"                              H H H H H H T H I H H H H T T I H H H H H H H I T H     -.: @ Z * # . # r                         ",
"                                  T H H H H T J H T T H T H T T I H T T H H T       U 2 : U : s o =                             ",
"                                      [ Y I I T H H H H T U U U U I T T I       H U A , U ; s X @                               ",
"                                              Y U T H T H F F +.u           J H U E J r s s 1                                   ",
"                                                                        H H I H A r : * 3                                       ",
"                                          y y u G             U U U T H H T I J #.u F                                           ",
"                                              I I H T H T I T T I H H H H H H H U                                               ",
"                                                      H H T H T T H H T H                                                       ",
"                                                                                                                                "
};
